#N canvas 0 22 1279 869 12;
#X msg 65 386 1;
#X obj 305 262 sel;
#X obj 275 402 until;
#X obj 275 426 f;
#X obj 305 426 + 1;
#X msg 321 401 0;
#X msg 305 189 0;
#X obj 305 239 list length;
#X obj 282 516 - 1;
#X obj 323 515 + 1;
#X obj 282 540 mod;
#X obj 323 539 mod;
#X obj 369 511 t f f;
#X msg 188 581 0 \$1;
#X msg 322 581 0 \$1;
#X msg 455 582 0 \$1;
#X obj 606 516 - 1;
#X obj 647 515 + 1;
#X obj 598 477 t f f f;
#X obj 606 540 mod;
#X obj 647 539 mod;
#X obj 693 511 t f f;
#X msg 606 582 1 \$1;
#X msg 740 582 1 \$1;
#X msg 873 583 1 \$1;
#X obj 323 288 t b f;
#X obj 480 800 list store;
#X obj 275 450 t f f;
#X obj 450 320 t f b f f b;
#X msg 451 743 append \$1;
#X obj 65 673 t b a;
#X obj 396 630 t f f;
#X obj 274 477 t f f f f;
#X obj 428 510 list prepend;
#X obj 815 790 outlet;
#X obj 955 104 text define -k aut-\$0;
#A set 0 0 0 1 0 0 0 0 0 0 0 0 0 \; 1 0 1 0 1 0 1 1 0 1 1 0 1 \;;
#X obj 305 213 text get aut-\$0;
#X obj 873 608 text get aut-\$0;
#X obj 740 607 text get aut-\$0;
#X obj 606 607 text get aut-\$0;
#X obj 455 607 text get aut-\$0;
#X obj 322 606 text get aut-\$0;
#X obj 188 606 text get aut-\$0;
#X obj 169 692 text set aut-\$0 0;
#X obj 65 456 text get aut-\$0;
#X obj 479 824 text set aut-\$0 1;
#X obj 691 30 loadbang;
#X obj 748 109 f \$1;
#X obj 748 133 until;
#X obj 748 157 f;
#X obj 785 158 + 1;
#X obj 877 143 random \$1;
#X obj 763 209 sel;
#X msg 764 238 1;
#X obj 774 20 bng 15 250 50 0 empty empty empty 17 7 0 10 -262144 -1
-1;
#X msg 824 263 append \$1;
#X msg 806 222 0;
#X obj 792 297 list store;
#X obj 744 79 t b b b;
#X msg 793 131 0;
#X obj 691 54 t b b;
#X obj 904 222 list store;
#X msg 903 195 append 0;
#X obj 813 363 text set aut-\$0 0;
#X obj 913 257 text set aut-\$0 1;
#X obj 822 23 inlet;
#X obj 300 98 inlet;
#X obj 744 185 t f b;
#X obj 451 671 \$2;
#X obj 534 668 \$3;
#X obj 629 670 \$4;
#X obj 451 695 \$5;
#X obj 451 719 \$6;
#X obj 814 768 change;
#X obj 814 744 poly \$1;
#X connect 0 0 44 0;
#X connect 1 1 25 0;
#X connect 2 0 3 0;
#X connect 3 0 4 0;
#X connect 3 0 27 0;
#X connect 4 0 3 1;
#X connect 5 0 3 1;
#X connect 6 0 36 0;
#X connect 7 0 1 0;
#X connect 8 0 10 0;
#X connect 9 0 11 0;
#X connect 10 0 13 0;
#X connect 11 0 15 0;
#X connect 12 0 10 1;
#X connect 12 1 11 1;
#X connect 13 0 42 0;
#X connect 14 0 41 0;
#X connect 15 0 40 0;
#X connect 16 0 19 0;
#X connect 17 0 20 0;
#X connect 18 0 16 0;
#X connect 18 1 23 0;
#X connect 18 2 17 0;
#X connect 19 0 22 0;
#X connect 20 0 24 0;
#X connect 21 0 19 1;
#X connect 21 1 20 1;
#X connect 22 0 39 0;
#X connect 23 0 38 0;
#X connect 24 0 37 0;
#X connect 25 0 0 0;
#X connect 25 1 28 0;
#X connect 26 0 45 0;
#X connect 27 0 32 0;
#X connect 27 1 18 0;
#X connect 28 0 2 0;
#X connect 28 1 5 0;
#X connect 28 2 12 0;
#X connect 28 3 21 0;
#X connect 28 4 26 1;
#X connect 29 0 26 0;
#X connect 30 0 26 0;
#X connect 30 1 43 0;
#X connect 31 0 69 0;
#X connect 31 1 33 0;
#X connect 32 0 8 0;
#X connect 32 1 14 0;
#X connect 32 2 9 0;
#X connect 32 3 33 1;
#X connect 33 0 74 0;
#X connect 36 0 7 0;
#X connect 37 0 70 1;
#X connect 38 0 69 1;
#X connect 39 0 68 1;
#X connect 40 0 70 0;
#X connect 41 0 31 0;
#X connect 42 0 68 0;
#X connect 44 0 30 0;
#X connect 46 0 60 0;
#X connect 47 0 48 0;
#X connect 48 0 49 0;
#X connect 49 0 50 0;
#X connect 49 0 67 0;
#X connect 50 0 49 1;
#X connect 51 0 52 1;
#X connect 52 0 53 0;
#X connect 52 1 56 0;
#X connect 53 0 55 0;
#X connect 54 0 58 0;
#X connect 55 0 57 0;
#X connect 56 0 55 0;
#X connect 57 0 63 0;
#X connect 58 0 47 0;
#X connect 58 1 51 0;
#X connect 58 2 59 0;
#X connect 58 2 57 1;
#X connect 58 2 61 1;
#X connect 59 0 49 1;
#X connect 60 0 57 0;
#X connect 60 0 61 0;
#X connect 60 1 58 0;
#X connect 61 0 64 0;
#X connect 62 0 61 0;
#X connect 65 0 58 0;
#X connect 66 0 6 0;
#X connect 67 0 52 0;
#X connect 67 1 62 0;
#X connect 68 0 71 0;
#X connect 69 0 71 1;
#X connect 70 0 72 1;
#X connect 71 0 72 0;
#X connect 72 0 29 0;
#X connect 73 0 34 0;
#X connect 74 0 73 0;
