#N canvas 0 23 450 300 12;
#X obj 101 73 unpack;
#X obj 101 97 t f f;
#X obj 104 178 f;
#X obj 101 217 pack;
#X obj 104 144 sel 0 1;
#X obj 105 22 inlet;
#X obj 101 241 outlet;
#X obj 104 120 tabread \$1;
#X obj 105 46 t a a;
#X obj 276 208 list;
#X obj 276 232 outlet;
#X connect 0 0 1 0;
#X connect 0 1 3 1;
#X connect 1 0 7 0;
#X connect 1 1 2 1;
#X connect 2 0 3 0;
#X connect 3 0 6 0;
#X connect 4 0 2 0;
#X connect 4 1 9 0;
#X connect 5 0 8 0;
#X connect 7 0 4 0;
#X connect 8 0 0 0;
#X connect 8 1 9 1;
#X connect 9 0 10 0;
