#N canvas 383 135 510 411 12;
#X obj 169 144 f 1000;
#X msg 169 165 0 \, 1 \$1;
#X obj 169 186 line~;
#X obj 169 207 *~ 512;
#X obj 169 228 +~ 1;
#X obj 169 249 tabread4~ 0-han;
#X obj 169 270 lop~ 100;
#X obj 35 176 mtof;
#X obj 35 223 line~;
#X obj 35 244 tabosc4~ 0-sin, f 9;
#X obj 35 310 *~;
#X obj 103 257 dbtorms;
#X obj 35 290 *~;
#X obj 35 156 t f f;
#X obj 103 225 tabread munson, f 7;
#X obj 290 92 bng 15 250 50 0 empty empty empty 17 7 0 10 -262144 -1
-1;
#X obj 361 92 bng 15 250 50 0 empty empty empty 17 7 0 10 -262144 -1
-1;
#X obj 290 112 random 13;
#X obj 290 133 fd_seltab 0;
#X symbolatom 290 154 10 0 0 0 - - -, f 10;
#X msg 290 174 set \$1;
#X obj 363 112 random 13;
#X obj 363 133 fd_seltab 0;
#X symbolatom 363 154 10 0 0 0 - - -, f 10;
#X msg 363 174 set \$1;
#X obj 35 4 inlet;
#X obj 280 32 random 100;
#X obj 290 71 moses 3;
#X obj 361 71 moses 5;
#X obj 37 116 *;
#X obj 83 132 / 100;
#X obj 80 105 + 30;
#X obj 35 30 list split 1;
#X obj 144 15 random 10000;
#X obj 28 60 t f b b;
#X obj 35 381 outlet~;
#X obj 170 59 t f b f;
#X floatatom 83 156 5 0 0 0 - - -, f 5;
#X obj 35 202 pack f 4;
#X obj 80 84 random 100;
#X obj 216 102 * 0.001;
#X obj 35 334 *~ 0.3;
#X connect 0 0 1 0;
#X connect 1 0 2 0;
#X connect 2 0 3 0;
#X connect 3 0 4 0;
#X connect 4 0 5 0;
#X connect 5 0 6 0;
#X connect 6 0 10 1;
#X connect 7 0 38 0;
#X connect 8 0 9 0;
#X connect 9 0 12 0;
#X connect 10 0 41 0;
#X connect 11 0 12 1;
#X connect 12 0 10 0;
#X connect 13 0 7 0;
#X connect 13 1 14 0;
#X connect 14 0 11 0;
#X connect 15 0 17 0;
#X connect 16 0 21 0;
#X connect 17 0 18 0;
#X connect 18 0 19 0;
#X connect 19 0 20 0;
#X connect 20 0 9 0;
#X connect 21 0 22 0;
#X connect 22 0 23 0;
#X connect 23 0 24 0;
#X connect 24 0 5 0;
#X connect 25 0 32 0;
#X connect 26 0 27 0;
#X connect 27 0 15 0;
#X connect 27 1 28 0;
#X connect 28 0 16 0;
#X connect 29 0 13 0;
#X connect 30 0 29 1;
#X connect 30 0 37 0;
#X connect 31 0 30 0;
#X connect 32 0 34 0;
#X connect 33 0 36 0;
#X connect 34 0 29 0;
#X connect 34 1 39 0;
#X connect 34 2 33 0;
#X connect 36 0 0 0;
#X connect 36 1 26 0;
#X connect 36 2 40 0;
#X connect 38 0 8 0;
#X connect 39 0 31 0;
#X connect 40 0 38 1;
#X connect 41 0 35 0;
