#N canvas 0 23 450 300 12;
#X obj 29 154 clone -s 20 kp 88 20;
#X obj 176 179 unpack;
#X obj 177 201 t b f;
#X obj 177 225 f;
#X obj 342 233 outlet;
#X obj 22 253 array define \$0-kp 88;
#X obj 176 249 array set \$0-kp;
#X obj 41 77 _check \$0-kp;
#X obj 31 32 inlet;
#X obj 25 220 throw~ dacout-\$2;
#X connect 0 0 9 0;
#X connect 0 1 1 0;
#X connect 1 0 2 0;
#X connect 1 1 3 1;
#X connect 2 0 3 0;
#X connect 2 1 6 1;
#X connect 3 0 6 0;
#X connect 7 0 0 0;
#X connect 7 1 4 0;
#X connect 8 0 7 0;
