#N canvas 0 23 676 533 12;
#X obj 84 129 pack;
#X obj 23 68 change;
#X obj 196 53 t b b;
#X obj 196 77 timer;
#X obj 196 101 moses 3;
#X obj 524 49 text define scor;
#X obj 85 213 list;
#X obj 85 237 t a b;
#X obj 85 261 text set scor;
#X msg 132 240 1e+15;
#X obj 308 398 text sequence scor -w 1;
#X msg 524 23 clear;
#X obj 315 226 text size scor;
#X obj 310 301 random;
#X msg 309 359 line \$1 \, auto;
#X obj 211 154 moses 10000;
#X obj 315 250 sel;
#X obj 316 279 t b f;
#X obj 363 118 random 10;
#X obj 363 142 moses 5;
#X obj 316 194 t b;
#X obj 534 232 del 1;
#X obj 534 209 t b;
#X obj 21 21 r \$1;
#X obj 109 20 r \$2;
#X obj 196 23 r \$3;
#X obj 308 421 s \$4;
#X obj 328 20 r scor-set;
#X connect 0 0 6 1;
#X connect 1 0 0 0;
#X connect 2 0 3 0;
#X connect 2 1 3 1;
#X connect 3 0 4 0;
#X connect 4 1 15 0;
#X connect 6 0 7 0;
#X connect 7 0 8 0;
#X connect 7 1 9 0;
#X connect 9 0 8 1;
#X connect 10 0 26 0;
#X connect 10 2 22 0;
#X connect 11 0 5 0;
#X connect 12 0 16 0;
#X connect 13 0 14 0;
#X connect 14 0 10 0;
#X connect 15 0 6 0;
#X connect 15 1 20 0;
#X connect 16 1 17 0;
#X connect 17 0 13 0;
#X connect 17 1 13 1;
#X connect 18 0 19 0;
#X connect 19 0 20 0;
#X connect 19 1 11 0;
#X connect 20 0 12 0;
#X connect 21 0 18 0;
#X connect 22 0 21 0;
#X connect 23 0 1 0;
#X connect 24 0 0 1;
#X connect 25 0 2 0;
#X connect 27 0 20 0;
