#N canvas 0 23 675 495 10;
#X obj 102 135 *~;
#X obj 42 83 mtof~;
#X obj 104 65 +~ 1;
#X obj 172 66 osc~ 0.4;
#X obj 172 90 +~ 1;
#X obj 172 114 *~ 0.8;
#X obj 102 111 osc~;
#X obj 104 89 *~ 4;
#X obj 47 176 osc~;
#X obj 48 150 +~;
#X obj 47 202 *~ 0.5;
#X floatatom 101 187 5 0 0 0 - - -, f 5;
#X obj 104 41 osc~ 0.1;
#X obj 36 13 inlet;
#X obj 47 226 outlet~;
#X obj 267 75 inlet;
#X obj 269 114 loadbang;
#X obj 170 199 tabread \$2;
#X obj 170 178 f \$1;
#X obj 241 153 random 100;
#X obj 241 174 / 100;
#X obj 46 123 *~ \$1;
#X connect 0 0 9 1;
#X connect 1 0 21 0;
#X connect 2 0 7 0;
#X connect 3 0 4 0;
#X connect 4 0 5 0;
#X connect 5 0 0 1;
#X connect 6 0 0 0;
#X connect 7 0 6 0;
#X connect 8 0 10 0;
#X connect 9 0 8 0;
#X connect 10 0 14 0;
#X connect 11 0 10 1;
#X connect 12 0 2 0;
#X connect 13 0 1 0;
#X connect 15 0 18 0;
#X connect 15 0 19 0;
#X connect 16 0 18 0;
#X connect 16 0 19 0;
#X connect 17 0 10 1;
#X connect 18 0 17 0;
#X connect 19 0 20 0;
#X connect 20 0 12 1;
#X connect 20 0 3 1;
#X connect 20 0 6 1;
#X connect 21 0 9 0;
