#N canvas 0 22 490 497 10;
#X obj 31 97 sel 0 1;
#X msg 239 220 1;
#X obj 202 184 t b b;
#X obj 102 254 del 10;
#X obj 68 320 line~;
#X obj 102 223 t b b;
#X msg 163 243 0;
#X obj 102 279 pack 1 100;
#X obj 31 131 t b b;
#X obj 68 180 pack 0 100;
#X obj 31 154 del 110;
#X msg 31 176 0;
#X obj 31 17 inlet;
#X obj 239 269 outlet switch;
#X obj 68 362 outlet~;
#X obj 31 73 change;
#X text 157 19 see fd_switch-help.pd;
#X obj 31 42 route float bang;
#X obj 187 43 loadbang;
#X obj 156 86 f \$1;
#X obj 215 89 f \$2;
#X obj 187 64 t b b;
#X obj 135 119 t f f f;
#X obj 178 141 +;
#X obj 215 110 t f f;
#X connect 0 0 8 0;
#X connect 0 1 2 0;
#X connect 1 0 13 0;
#X connect 2 0 5 0;
#X connect 2 1 1 0;
#X connect 3 0 7 0;
#X connect 4 0 14 0;
#X connect 5 0 3 0;
#X connect 5 1 6 0;
#X connect 6 0 4 0;
#X connect 7 0 4 0;
#X connect 8 0 10 0;
#X connect 8 1 9 0;
#X connect 9 0 4 0;
#X connect 10 0 11 0;
#X connect 11 0 13 0;
#X connect 12 0 17 0;
#X connect 15 0 0 0;
#X connect 17 0 15 0;
#X connect 18 0 21 0;
#X connect 19 0 22 0;
#X connect 20 0 24 0;
#X connect 21 0 19 0;
#X connect 21 1 20 0;
#X connect 22 0 9 1;
#X connect 22 1 7 1;
#X connect 22 2 23 0;
#X connect 23 0 10 1;
#X connect 24 0 23 1;
#X connect 24 1 3 1;
