#N canvas 0 23 450 300 10;
#X obj 127 79 t f f b f;
#X obj 127 128 ==;
#X obj 127 152 sel;
#X obj 127 176 f;
#X obj 130 33 inlet;
#X obj 127 197 outlet;
#X obj 152 106 f \$1;
#X obj 254 37 inlet;
#X obj 254 58 f \$1;
#X connect 0 0 1 0;
#X connect 0 1 6 1;
#X connect 0 2 6 0;
#X connect 0 3 3 1;
#X connect 1 0 2 0;
#X connect 2 0 3 0;
#X connect 3 0 5 0;
#X connect 4 0 0 0;
#X connect 6 0 1 1;
#X connect 7 0 8 0;
#X connect 8 0 6 1;
