#N canvas 330 23 897 751 12;
#X obj 200 355 abs~;
#X obj 200 332 -~ 0.5;
#X obj 200 377 *~ -2;
#X obj 200 399 +~ 1;
#X obj 121 402 sig~ 1;
#X obj 121 425 /~;
#X obj 121 457 *~ 0.001;
#X obj 121 479 clip~ 0 1;
#X obj 46 518 *~;
#X obj 46 755 hip~ 5;
#X obj 46 332 *~ 61;
#X obj 46 354 +~ 1;
#X obj 46 724 +~;
#X obj 46 399 cos~;
#X obj 200 309 *~;
#X msg 52 255 1;
#X obj 70 678 *~ 0.99;
#X obj 46 225 pack 0 50;
#X obj 626 423 pack f 10;
#X obj 237 431 / 1000;
#N canvas 0 23 359 618 rand-seq 0;
#X obj 71 236 until;
#X obj 71 325 list;
#X obj 71 347 t l l;
#X obj 50 378 list;
#X msg 23 269 0;
#X obj 71 301 / 100;
#X obj 71 258 random 200;
#X obj 71 280 - 100;
#X obj 23 353 t b f;
#X obj 23 170 int 64;
#X obj 23 444 t f f b;
#X msg 131 483 0;
#X obj 23 414 int 64, f 7;
#X msg 76 516 \$1 0;
#X obj 76 482 - 1;
#X obj 103 482 - 2;
#X text 80 412 <- force edges to 0, f 7;
#X obj 50 98 f \$1;
#X obj 50 119 sel 0;
#X obj 23 78 t b b;
#X msg 180 529 resize \$1;
#X obj 23 207 t b f b f f, f 36;
#X obj 55 562 array define \$0-rand-seq 64;
#X obj 21 22 inlet;
#X obj 23 474 t b f;
#X obj 23 593 outlet;
#X connect 0 0 6 0;
#X connect 1 0 2 0;
#X connect 2 0 3 1;
#X connect 2 1 1 1;
#X connect 3 0 22 0;
#X connect 4 0 8 0;
#X connect 5 0 1 0;
#X connect 6 0 7 0;
#X connect 7 0 5 0;
#X connect 8 0 12 0;
#X connect 8 1 3 0;
#X connect 9 0 21 0;
#X connect 10 0 24 0;
#X connect 10 1 15 0;
#X connect 10 2 11 0;
#X connect 11 0 13 0;
#X connect 12 0 10 0;
#X connect 13 0 22 0;
#X connect 14 0 13 0;
#X connect 15 0 13 0;
#X connect 17 0 18 0;
#X connect 18 1 9 1;
#X connect 19 0 9 0;
#X connect 19 1 17 0;
#X connect 20 0 22 0;
#X connect 21 0 4 0;
#X connect 21 1 0 0;
#X connect 21 2 1 1;
#X connect 21 3 12 1;
#X connect 21 4 20 0;
#X connect 23 0 19 0;
#X connect 24 0 25 0;
#X connect 24 1 14 0;
#X restore 439 226 pd rand-seq;
#X obj 141 675 / 100;
#X obj 121 501 *~;
#X obj 46 201 t b b;
#X obj 69 650 delread4~ \$0-in;
#X obj 351 203 / 1000;
#X obj 351 225 wrap;
#X text 248 354 triangle pulse;
#X obj 324 250 f;
#X obj 203 258 phasor~ 10;
#X obj 626 445 line~;
#X obj 46 376 tabread4~ \$0-rand-seq;
#X obj 144 128 sin;
#X obj 144 148 + 0.5;
#X obj 144 170 t b f;
#X obj 141 204 * 1;
#X obj 206 230 * 1;
#X obj 426 577 r bp-coef;
#X obj 470 675 r bp-q;
#X obj 416 630 f;
#X obj 426 599 t b f;
#X obj 416 659 * 0.44;
#X obj 327 681 *~ 0.03;
#X msg 333 600 0.5;
#X obj 211 282 -~;
#X obj 438 263 f \$4;
#X obj 67 625 +~;
#X msg 304 600 1;
#X obj 438 285 t f b;
#X obj 468 309 random 100;
#X obj 468 331 / 1000;
#X obj 466 358 +;
#X obj 466 380 * 0.5;
#X obj 293 44 f \$1;
#X obj 293 68 - \$2;
#X obj 621 282 f;
#X obj 647 282 + 1;
#X obj 621 392 * 0.01;
#X obj 621 346 line 0 1;
#X obj 621 324 pack f 1000;
#X obj 621 260 spigot 1;
#X obj 712 255 sel 1;
#X obj 621 304 + 1;
#X obj 673 282 mod 62;
#X obj 621 370 tabread4 \$0-rand-seq;
#X obj 699 221 t f f;
#X obj 431 430 t f f;
#X obj 342 489 t f f;
#X obj 416 549 mtof;
#X obj 333 517 moses 33;
#X obj 333 545 moses 46;
#X obj 333 572 moses 71;
#X obj 120 16 inlet;
#X obj 294 119 unpack f f f f f f f f;
#X obj 121 67 t b b b;
#X obj 374 771 outlet~;
#X obj 293 95 text get -s text t;
#X obj 382 17 r preset;
#X obj 373 714 bp~ 100 0.97;
#X msg 364 600 0.3;
#X obj 46 275 vline~;
#X obj 67 591 vline~;
#X obj 46 779 delwrite~ \$0-in 371.519;
#X obj 610 677 switch~;
#X obj 373 738 *~;
#X obj 123 41 t b f b;
#X obj 453 65 t b a b b;
#X msg 205 63 1;
#X obj 215 609 env~;
#X obj 215 633 >= 10;
#X obj 215 657 change;
#X obj 535 586 fd_sw 10 3;
#X obj 698 597 outlet;
#X obj 602 639 t f f;
#X connect 0 0 2 0;
#X connect 1 0 0 0;
#X connect 2 0 3 0;
#X connect 3 0 5 1;
#X connect 4 0 5 0;
#X connect 5 0 6 0;
#X connect 6 0 7 0;
#X connect 7 0 22 0;
#X connect 7 0 22 1;
#X connect 8 0 12 0;
#X connect 9 0 42 0;
#X connect 9 0 82 0;
#X connect 10 0 11 0;
#X connect 11 0 31 0;
#X connect 12 0 9 0;
#X connect 13 0 8 0;
#X connect 14 0 1 0;
#X connect 15 0 80 0;
#X connect 16 0 12 1;
#X connect 17 0 80 0;
#X connect 18 0 30 0;
#X connect 19 0 6 1;
#X connect 20 0 45 0;
#X connect 21 0 16 1;
#X connect 22 0 8 1;
#X connect 23 0 17 0;
#X connect 23 1 15 0;
#X connect 24 0 16 0;
#X connect 24 0 88 0;
#X connect 25 0 26 0;
#X connect 26 0 28 1;
#X connect 28 0 29 1;
#X connect 29 0 44 0;
#X connect 30 0 46 0;
#X connect 31 0 13 0;
#X connect 32 0 33 0;
#X connect 33 0 34 0;
#X connect 34 0 35 0;
#X connect 34 0 36 0;
#X connect 34 1 35 1;
#X connect 34 1 36 1;
#X connect 35 0 17 1;
#X connect 36 0 29 0;
#X connect 37 0 40 0;
#X connect 38 0 78 2;
#X connect 39 0 41 0;
#X connect 40 0 39 0;
#X connect 40 1 41 1;
#X connect 41 0 78 1;
#X connect 42 0 78 0;
#X connect 43 0 42 1;
#X connect 44 0 14 1;
#X connect 45 0 48 0;
#X connect 46 0 24 0;
#X connect 47 0 42 1;
#X connect 48 0 51 0;
#X connect 48 1 49 0;
#X connect 49 0 50 0;
#X connect 50 0 51 1;
#X connect 51 0 52 0;
#X connect 52 0 66 0;
#X connect 53 0 54 0;
#X connect 54 0 76 0;
#X connect 55 0 56 0;
#X connect 55 0 62 0;
#X connect 56 0 63 0;
#X connect 57 0 18 0;
#X connect 58 0 64 0;
#X connect 59 0 58 0;
#X connect 60 0 55 0;
#X connect 61 1 18 0;
#X connect 62 0 59 0;
#X connect 63 0 55 1;
#X connect 64 0 57 0;
#X connect 65 0 60 1;
#X connect 65 1 61 0;
#X connect 66 0 44 1;
#X connect 66 1 46 1;
#X connect 67 0 69 0;
#X connect 67 1 68 0;
#X connect 68 0 39 0;
#X connect 69 1 70 0;
#X connect 70 0 47 0;
#X connect 70 1 71 0;
#X connect 71 0 43 0;
#X connect 71 1 79 0;
#X connect 72 0 85 0;
#X connect 73 0 67 0;
#X connect 73 1 81 0;
#X connect 73 2 21 0;
#X connect 73 3 35 0;
#X connect 73 4 36 0;
#X connect 73 5 25 0;
#X connect 73 6 19 0;
#X connect 73 7 65 0;
#X connect 74 0 23 0;
#X connect 74 1 28 0;
#X connect 74 2 60 0;
#X connect 76 0 73 0;
#X connect 77 0 86 0;
#X connect 78 0 84 0;
#X connect 79 0 42 1;
#X connect 80 0 10 0;
#X connect 80 0 14 0;
#X connect 81 0 46 0;
#X connect 84 0 75 0;
#X connect 85 0 74 0;
#X connect 85 1 32 0;
#X connect 85 2 87 0;
#X connect 86 0 53 0;
#X connect 86 1 76 3;
#X connect 86 2 20 0;
#X connect 87 0 91 0;
#X connect 88 0 89 0;
#X connect 89 0 90 0;
#X connect 90 0 91 0;
#X connect 91 0 84 1;
#X connect 91 1 93 0;
#X connect 93 0 83 0;
#X connect 93 1 92 0;
