#N canvas 755 54 275 251 12;
#X declare -lib timbreIDLib;
#N canvas 284 127 454 297 guts 0;
#X obj 159 13 loadbang;
#N canvas 0 23 450 300 netsend 0;
#X obj 82 156 netsend;
#X obj 95 78 r to-netsend;
#X obj 95 102 list prepend send;
#X obj 95 126 list trim;
#X obj 84 45 r connect;
#X obj 82 180 print connected;
#X connect 0 0 5 0;
#X connect 1 0 2 0;
#X connect 2 0 3 0;
#X connect 3 0 0 0;
#X connect 4 0 0 0;
#X restore 27 237 pd netsend;
#N canvas 0 23 450 300 barked 0;
#X obj 49 33 declare -lib timbreIDLib;
#X obj 45 124 bark~ 2048 128 0.5;
#X obj 45 92 r~ 1-adc;
#X obj 44 158 s barked;
#X connect 1 0 3 0;
#X connect 2 0 1 0;
#X restore 26 104 pd barked;
#N canvas 0 23 450 300 sigmund 0;
#X obj 54 73 sigmund~;
#X obj 55 106 sel -1500;
#X obj 119 137 int;
#X obj 165 71 moses 60;
#X obj 151 105 dbtorms;
#X obj 50 44 r~ 1-adc;
#X obj 21 244 s pitched;
#X obj 149 200 s amped;
#X obj 287 217 s peak-amp;
#X connect 0 0 1 0;
#X connect 0 1 3 0;
#X connect 1 1 2 0;
#X connect 2 0 6 0;
#X connect 3 0 4 0;
#X connect 3 1 8 0;
#X connect 4 0 7 0;
#X connect 5 0 0 0;
#X restore 27 129 pd sigmund;
#N canvas 0 23 450 300 1-adc 0;
#X obj 98 39 adc~ 1;
#X obj 98 83 *~ 0;
#X obj 122 63 tgl 15 0 empty enable-input empty 17 7 0 10 -262144 -1
-1 1 1;
#X obj 102 203 s~ 1-adc;
#X obj 241 151 env~;
#X obj 241 175 s env;
#X connect 0 0 1 0;
#X connect 1 0 3 0;
#X connect 1 0 4 0;
#X connect 2 0 1 1;
#X connect 4 0 5 0;
#X restore 27 24 pd 1-adc;
#N canvas 0 23 450 300 imitator 0;
#X obj 128 102 pack;
#X obj 84 154 list;
#X obj 79 200 s to-netsend;
#X obj 33 29 r barked;
#X obj 118 34 r pitched;
#X obj 169 67 r amped;
#X connect 0 0 1 1;
#X connect 1 0 2 0;
#X connect 3 0 1 0;
#X connect 4 0 0 0;
#X connect 5 0 0 1;
#X restore 27 156 pd imitator;
#N canvas 0 23 450 300 clusterator 0;
#X obj 119 200 fd_iterate;
#X obj 119 224 + 70;
#X obj 126 122 random 10;
#X obj 126 146 + 1;
#X obj 121 65 f;
#X obj 122 12 random 100;
#X obj 122 36 del;
#X obj 119 92 t b f;
#X obj 28 59 t b f;
#X obj 119 248 pack f f;
#X obj 36 137 dbtorms;
#X obj 126 170 t f f;
#X obj 258 270 s to-netsend;
#X msg 224 223 randcoef \$1;
#X obj 156 43 r pitched;
#X obj 16 10 r peak-amp;
#X connect 0 0 1 0;
#X connect 1 0 9 0;
#X connect 2 0 3 0;
#X connect 3 0 11 0;
#X connect 4 0 7 0;
#X connect 5 0 6 0;
#X connect 6 0 4 0;
#X connect 7 0 2 0;
#X connect 7 1 1 1;
#X connect 8 0 5 0;
#X connect 8 1 10 0;
#X connect 9 0 12 0;
#X connect 10 0 9 1;
#X connect 11 0 0 0;
#X connect 11 1 13 0;
#X connect 13 0 12 0;
#X connect 14 0 4 1;
#X connect 15 0 8 0;
#X restore 27 183 pd clusterator;
#N canvas 0 23 450 300 score-setter 0;
#X obj 23 179 metro 10000;
#X obj 23 227 t b f;
#X obj 23 203 random 20000;
#X obj 23 105 f;
#X obj 54 104 + 1;
#X obj 23 127 > 100;
#X obj 23 151 change;
#X obj 23 58 moses 30;
#X obj 50 81 moses 50;
#X msg 83 103 0;
#X obj 23 82 bng 15 250 50 0 empty empty empty 17 7 0 10 -262144 -1
-1;
#X obj 23 33 r env;
#X obj 116 35 _scor-set pitched amped barked to-netsend;
#X obj 23 251 s scor-set;
#X connect 0 0 2 0;
#X connect 1 0 13 0;
#X connect 1 1 0 1;
#X connect 2 0 1 0;
#X connect 3 0 4 0;
#X connect 3 0 5 0;
#X connect 4 0 3 1;
#X connect 5 0 6 0;
#X connect 6 0 0 0;
#X connect 7 0 10 0;
#X connect 7 1 8 0;
#X connect 8 1 9 0;
#X connect 9 0 3 1;
#X connect 10 0 3 0;
#X connect 11 0 7 0;
#X restore 27 210 pd score-setter;
#N canvas 0 23 450 300 reverb 0;
#X obj 155 96 mtof;
#X obj 61 141 rev3~ 115 80 6000 50;
#X obj 24 38 r~ 1-adc;
#X obj 153 55 r rev-f-fil;
#X obj 213 94 r rev-f-q;
#X obj 104 26 r rev-amp;
#X obj 306 82 r rev-onoff;
#X obj 306 106 fd_switch;
#X obj 357 145 switch~;
#X obj 203 218 *~;
#X obj 233 218 *~;
#X obj 64 194 +~;
#N canvas 75 238 450 300 acople 0;
#X obj 58 61 sigmund~;
#X obj 62 30 inlet~;
#X obj 58 85 sel -1500;
#X obj 153 74 int;
#X obj 188 132 f;
#X obj 154 127 ==;
#X obj 154 151 change;
#X obj 154 222 sel 0 1;
#X obj 270 227 line;
#X obj 269 247 s rev-amp-set;
#X msg 270 203 \$1 1000;
#X obj 154 175 == 1;
#X obj 154 199 ==;
#X obj 214 87 == 1;
#X obj 214 63 > 70;
#X obj 154 103 t f f b f;
#X obj 30 130 f;
#X msg 28 196 \$1 1000;
#X obj 28 220 line;
#X obj 28 244 s rev-f-fil-set;
#X obj 30 154 * 1.7;
#X msg 306 150 80;
#X msg 298 118 130;
#X connect 0 0 2 0;
#X connect 0 1 14 0;
#X connect 1 0 0 0;
#X connect 2 1 3 0;
#X connect 3 0 15 0;
#X connect 4 0 5 1;
#X connect 5 0 6 0;
#X connect 6 0 11 0;
#X connect 7 0 22 0;
#X connect 7 1 21 0;
#X connect 7 1 16 0;
#X connect 8 0 9 0;
#X connect 10 0 8 0;
#X connect 11 0 12 0;
#X connect 12 0 7 0;
#X connect 13 0 12 1;
#X connect 14 0 13 0;
#X connect 15 0 5 0;
#X connect 15 1 4 1;
#X connect 15 2 4 0;
#X connect 15 3 16 1;
#X connect 16 0 20 0;
#X connect 17 0 18 0;
#X connect 18 0 19 0;
#X connect 20 0 17 0;
#X connect 21 0 10 0;
#X connect 22 0 10 0;
#X restore 65 234 pd acople;
#X obj 203 242 throw~ dacout-1;
#X obj 237 264 throw~ dacout-2;
#X connect 0 0 1 4;
#X connect 1 0 9 0;
#X connect 1 0 11 0;
#X connect 1 1 10 0;
#X connect 1 1 11 1;
#X connect 2 0 1 0;
#X connect 2 0 1 1;
#X connect 3 0 0 0;
#X connect 4 0 1 5;
#X connect 5 0 1 2;
#X connect 6 0 7 0;
#X connect 7 0 9 1;
#X connect 7 0 10 1;
#X connect 7 1 8 0;
#X connect 9 0 13 0;
#X connect 10 0 14 0;
#X connect 11 0 12 0;
#X restore 27 50 pd reverb;
#N canvas 232 71 450 300 harms 0;
#X obj 35 27 r rev-f-fil-set;
#X floatatom 35 51 5 0 0 0 - - -, f 5;
#X obj 47 208 _harmos;
#X obj 197 18 r env;
#X obj 201 47 > 50;
#X obj 280 135 r harms-onoff;
#X obj 280 159 fd_switch;
#X obj 45 263 throw~ dacout-1;
#X obj 47 232 *~;
#X obj 197 232 *~;
#X obj 195 263 throw~ dacout-2;
#X obj 339 185 switch~;
#X obj 201 71 change;
#X obj 201 95 sel 1;
#X obj 201 119 bng 15 250 50 0 empty empty empty 17 7 0 10 -262144
-1 -1;
#X obj 51 89 spigot 1;
#X obj 51 113 t f b;
#X msg 93 112 0;
#X obj 51 137 list prepend 0;
#X obj 51 168 route 0 1;
#X obj 201 139 t b b;
#X obj 185 167 tgl 15 0 empty empty empty 17 7 0 10 -262144 -1 -1 0
1;
#X msg 140 83 1;
#X obj 93 59 * 0.9;
#X obj 197 208 _harmos;
#X connect 0 0 1 0;
#X connect 0 0 23 0;
#X connect 2 0 8 0;
#X connect 3 0 4 0;
#X connect 4 0 12 0;
#X connect 5 0 6 0;
#X connect 6 0 8 1;
#X connect 6 0 9 1;
#X connect 6 1 11 0;
#X connect 8 0 7 0;
#X connect 9 0 10 0;
#X connect 12 0 13 0;
#X connect 13 0 14 0;
#X connect 14 0 20 0;
#X connect 15 0 16 0;
#X connect 16 0 18 0;
#X connect 16 1 17 0;
#X connect 17 0 15 1;
#X connect 18 0 19 0;
#X connect 19 0 2 0;
#X connect 19 1 24 0;
#X connect 20 0 22 0;
#X connect 20 1 21 0;
#X connect 21 0 18 1;
#X connect 22 0 15 1;
#X connect 23 0 15 0;
#X connect 24 0 9 0;
#X restore 27 77 pd harms;
#N canvas 0 23 450 300 dacout 0;
#X obj 88 34 catch~ dacout-1;
#X obj 88 58 *~;
#X obj 88 82 hip~ 3;
#X obj 103 254 dac~;
#X obj 168 148 *~;
#X obj 168 172 hip~ 3;
#X obj 300 18 r vol;
#X obj 300 42 dbtorms;
#X msg 300 66 \$1 10;
#X obj 300 90 line~;
#X obj 205 224 env~;
#X obj 205 248 s dac-env;
#X obj 168 124 catch~ dacout-2;
#X connect 0 0 1 0;
#X connect 1 0 2 0;
#X connect 2 0 3 0;
#X connect 2 0 10 0;
#X connect 4 0 5 0;
#X connect 5 0 3 1;
#X connect 5 0 10 0;
#X connect 6 0 7 0;
#X connect 7 0 8 0;
#X connect 8 0 9 0;
#X connect 9 0 4 1;
#X connect 9 0 1 1;
#X connect 10 0 11 0;
#X connect 12 0 4 0;
#X restore 335 251 pd dacout;
#X obj 285 190 fd_windows 0 515;
#N canvas 0 23 450 300 fletcher-munson 0;
#N canvas 0 22 450 278 (subpatch) 0;
#X array munson 128 float 3;
#A 0 109 109 109 109 109 109 109.857 109.857 109.857 109.857 109.857
109.857 109.857 109.857 109.857 109.857 109.857 109.857 109.857 109.857
109.857 109 109 108.143 107.286 107.286 107.286 107.286 105.571 105.571
103.857 103 102.143 100.429 100.429 98.714 98.714 97.857 97 96.143
95.286 95.286 93.5714 93.5714 92.7142 91.8571 90.9999 90.1428 89.2856
88.4285 87.5713 86.7142 86.7142 86.7142 86.7142 85.857 84.9999 84.9999
84.9999 84.1427 84.1427 83.2856 82.4284 82.4284 81.5713 81.5713 81.5713
80.7141 80.7141 80.7141 80.7141 80.7141 80.7141 80.7141 79.857 79.857
79.857 79.857 78.9999 78.9999 78.9999 78.9999 78.9999 78.9999 78.1427
78.1427 77.2856 76.4284 75.5713 74.7141 74.7141 73.857 73.857 72.1427
72.1427 71.2855 71.2855 70.4284 69.5712 68.7141 67.8569 66.9998 66.9998
66.1426 66.1426 66.1426 66.1426 66.9998 67.8569 69.5712 70.4284 71.2855
73.857 75.5713 75.5713 78.1427 79.857 80.7141 81.5713 82.4284 84.1427
84.1427 84.9999 84.9999 84.9999 84.9999 84.9999 84.9999;
#X coords 0 120 128 0 205 140 1 0 0;
#X restore 191 30 graph;
#X obj 195 174 hsl 200 15 0 127 0 0 empty empty empty -2 -8 0 10 -262144
-1 -1 0 1;
#X obj 189 204 mtof;
#X floatatom 186 225 5 0 0 0 - - -, f 5;
#X obj 228 209 tabread munson;
#X floatatom 226 229 5 0 0 0 - - -, f 5;
#X msg 15 216 \; munson read ./munson.txt;
#X obj 77 177 tabletool munson;
#X msg 77 103 1;
#X msg 86 131 -1;
#X msg 77 154 offset \$1;
#X obj 158 55 bng 15 250 50 0 empty empty + 5 7 0 10 -262144 -1 -1
;
#X obj 158 80 bng 15 250 50 0 empty empty - 5 7 0 10 -262144 -1 -1
;
#X connect 1 0 2 0;
#X connect 1 0 4 0;
#X connect 2 0 3 0;
#X connect 4 0 5 0;
#X connect 8 0 10 0;
#X connect 9 0 10 0;
#X connect 10 0 7 0;
#X connect 11 0 8 0;
#X connect 12 0 9 0;
#X restore 285 211 pd fletcher-munson;
#X msg 159 39 \; connect connect localhost 5001 \; pd dsp 1 \; vol-set
97 \; enable-input 1 \; harms-onoff-set 1 \; rev-onoff-set 1 \; rev-amp-set
115 \; rev-f-fil-set 120 \; rev-f-q-set 50 \;;
#X connect 0 0 13 0;
#X restore 192 222 pd guts;
#X obj 79 110 vsl 15 128 0 127 0 0 rev-f-fil rev-f-fil-set rev-f-fil
0 -9 0 10 -262144 -1 -1 10540 1;
#X obj 21 112 vsl 15 128 0 127 0 0 rev-amp rev-amp-set rev-amp 0 -9
0 10 -262144 -1 -1 8000 1;
#X obj 142 109 vsl 15 128 0 100 0 0 rev-f-q rev-f-q-set rev-f-q 0 -9
0 10 -262144 -1 -1 6350 1;
#X obj 22 76 tgl 15 0 rev-onoff rev-onoff-set rev-onoff 17 7 0 10 -262144
-1 -1 1 1;
#X obj 21 19 nbx 5 14 -1e+37 1e+37 0 0 empty env env 0 -8 0 10 -262144
-1 -1 0 256;
#X obj 22 44 bng 15 250 50 0 empty barked barked 17 7 0 10 -262144
-1 -1;
#X obj 85 18 nbx 5 14 -1e+37 1e+37 0 0 empty pitched pitched 0 -8 0
10 -262144 -1 -1 74 256;
#X obj 84 48 nbx 5 14 -1e+37 1e+37 0 0 empty amped amped 0 -8 0 10
-262144 -1 -1 0 256;
#X obj 144 48 nbx 5 14 -1e+37 1e+37 0 0 empty peak-amp peak-amp 0 -8
0 10 -262144 -1 -1 60.052 256;
#X obj 148 16 bng 15 250 50 0 empty scor-set scor-set 17 7 0 10 -262144
-1 -1;
#X obj 224 28 vsl 15 128 0 127 0 0 vol vol-set vol 0 -9 0 10 -262144
-1 -1 9700 1;
#X obj 190 165 nbx 5 14 -1e+37 1e+37 0 0 empty vol vol 0 -8 0 10 -262144
-1 -1 97 256;
#X obj 190 198 nbx 5 14 -1e+37 1e+37 0 0 empty dac-env dac-env 0 -8
0 10 -262144 -1 -1 40.6027 256;
#X obj 109 74 tgl 15 0 harms-onoff harms-onoff-set harms-onoff 17 7
0 10 -262144 -1 -1 1 1;
