#N canvas 173 91 454 324 12;
#X declare -lib timbreIDLib;
#X obj 107 9 env~;
#X floatatom 107 33 5 0 0 0 - - -, f 5;
#X obj 254 14 declare -lib timbreIDLib;
#X obj 25 83 sigmund~;
#X obj 32 131 sel -1500;
#X obj 320 185 pack;
#X obj 317 115 int;
#X obj 317 139 change;
#X obj 186 96 bng 15 250 50 0 empty empty empty 17 7 0 10 -262144 -1
-1;
#X floatatom 322 55 0 0 0 0 - - -;
#X obj 152 57 bark~ 2048 128 0.5;
#X obj 232 106 t b b;
#X obj 232 130 timer;
#X obj 232 154 moses 3;
#X obj 324 227 text define scor;
#X obj 274 225 list;
#X obj 274 249 t a b;
#X obj 274 273 text set scor;
#X msg 321 252 1e+15;
#X obj 20 246 text sequence scor -w 1;
#X obj 20 269 s notein;
#X msg 141 203 stop;
#X msg 370 174 clear;
#X obj 198 215 text size scor;
#X obj 193 290 random;
#X msg 21 207 line \$1 \, auto;
#X obj 32 155 f;
#X obj 67 157 + 1;
#X msg 129 157 0;
#X obj 171 157 sel;
#X obj 32 179 < 10000;
#X obj 180 191 bng 15 250 50 0 empty empty empty 17 7 0 10 -262144
-1 -1;
#X obj 146 276 bng 15 250 50 0 empty empty empty 17 7 0 10 -262144
-1 -1;
#X obj 213 188 moses 10000;
#X obj 13 10 adc~ 1;
#X obj 13 54 *~ 0;
#X obj 24 33 tgl 15 0 empty empty empty 17 7 0 10 -262144 -1 -1 0 1
;
#X obj 107 112 dbtorms;
#X obj 364 97 s notein2;
#X obj 198 239 sel;
#X obj 199 268 t b f;
#X connect 0 0 1 0;
#X connect 3 0 4 0;
#X connect 3 1 37 0;
#X connect 4 0 26 0;
#X connect 4 1 6 0;
#X connect 5 0 15 1;
#X connect 5 0 38 0;
#X connect 6 0 7 0;
#X connect 7 0 5 0;
#X connect 8 0 11 0;
#X connect 8 0 28 0;
#X connect 10 0 8 0;
#X connect 10 1 9 0;
#X connect 11 0 12 0;
#X connect 11 1 12 1;
#X connect 12 0 13 0;
#X connect 13 1 33 0;
#X connect 15 0 16 0;
#X connect 16 0 17 0;
#X connect 16 1 18 0;
#X connect 18 0 17 1;
#X connect 19 0 20 0;
#X connect 19 2 32 0;
#X connect 19 2 23 0;
#X connect 21 0 19 0;
#X connect 22 0 14 0;
#X connect 23 0 39 0;
#X connect 24 0 25 0;
#X connect 25 0 19 0;
#X connect 26 0 27 0;
#X connect 26 0 30 0;
#X connect 27 0 26 1;
#X connect 28 0 26 1;
#X connect 29 0 31 0;
#X connect 30 0 29 0;
#X connect 31 0 28 0;
#X connect 31 0 23 0;
#X connect 33 0 15 0;
#X connect 33 1 31 0;
#X connect 34 0 35 0;
#X connect 35 0 0 0;
#X connect 35 0 3 0;
#X connect 35 0 10 0;
#X connect 36 0 35 1;
#X connect 37 0 5 1;
#X connect 39 1 40 0;
#X connect 40 0 24 0;
#X connect 40 1 24 1;
