#N canvas 0 23 450 300 10;
#X obj 17 35 inlet~;
#X obj 122 93 *~ \$1;
#X obj 135 199 outlet~;
#X obj 132 162 *~;
#X obj 227 104 loadbang;
#X obj 227 152 /;
#X obj 265 44 inlet;
#X obj 227 128 pack \$1 \$2;
#X obj 132 138 vcf~ 100;
#X obj 132 32 inlet~;
#X connect 0 0 8 0;
#X connect 1 0 8 1;
#X connect 3 0 2 0;
#X connect 4 0 7 0;
#X connect 5 0 3 1;
#X connect 6 0 8 2;
#X connect 7 0 5 0;
#X connect 8 0 3 0;
#X connect 9 0 1 0;
