#N canvas 298 315 751 667 12;
#X obj 235 221 f;
#X obj 203 83 t f f f;
#X obj 203 153 text get;
#X obj 235 244 text delete;
#X obj 388 586 text insert;
#X obj 130 437 outlet;
#X obj 203 9 inlet;
#X obj 331 52 symbol;
#X obj 331 28 inlet;
#X obj 203 33 list split 1;
#X obj 356 270 text size;
#X msg 405 13 cells;
#X floatatom 140 20 5 0 0 0 - - -, f 5;
#X obj 203 196 t a b;
#X obj 203 269 unpack;
#X obj 203 303 t f f f;
#X obj 203 327 - 1;
#X obj 235 328 + 1;
#X obj 230 360 mod;
#X obj 273 328 t f f;
#X obj 264 359 mod;
#X obj 230 428 text get;
#X obj 230 452 unpack;
#X obj 317 427 text get;
#X obj 317 451 unpack;
#X obj 331 76 t a a a b a a a;
#X obj 269 482 == 0;
#X obj 306 482 == 1;
#X obj 356 482 == 0;
#X obj 269 506 ==;
#X obj 307 505 !=;
#X obj 386 528 t f f;
#X obj 316 555 list prepend;
#X msg 93 57 4 1;
#X connect 0 0 3 0;
#X connect 1 0 2 0;
#X connect 1 1 0 1;
#X connect 1 2 31 0;
#X connect 2 0 13 0;
#X connect 6 0 9 0;
#X connect 7 0 25 0;
#X connect 8 0 7 0;
#X connect 9 0 1 0;
#X connect 10 0 19 0;
#X connect 11 0 7 0;
#X connect 12 0 9 0;
#X connect 13 0 14 0;
#X connect 13 1 0 0;
#X connect 14 0 15 0;
#X connect 14 1 27 0;
#X connect 15 0 16 0;
#X connect 15 1 17 0;
#X connect 16 0 18 0;
#X connect 17 0 20 0;
#X connect 18 0 21 0;
#X connect 19 0 18 1;
#X connect 19 1 20 1;
#X connect 20 0 23 0;
#X connect 21 0 22 0;
#X connect 22 1 26 0;
#X connect 23 0 24 0;
#X connect 24 1 28 0;
#X connect 25 0 2 3;
#X connect 25 1 3 1;
#X connect 25 2 4 2;
#X connect 25 3 10 0;
#X connect 25 4 10 1;
#X connect 25 5 21 3;
#X connect 25 6 23 3;
#X connect 26 0 29 0;
#X connect 27 0 29 1;
#X connect 28 0 30 1;
#X connect 29 0 30 0;
#X connect 30 0 32 0;
#X connect 31 0 32 1;
#X connect 31 1 4 1;
#X connect 32 0 4 0;
#X connect 33 0 9 0;
