#N canvas 527 50 450 297 12;
#N canvas 0 22 450 300 notes-object 0;
#X obj 90 66 list store;
#X obj 90 90 list prepend input;
#X obj 90 114 list trim;
#X obj 244 114 r notes-object;
#X obj 90 42 r input;
#X obj 90 138 s notes-object;
#X obj 244 138 notes;
#X connect 0 0 1 0;
#X connect 1 0 2 0;
#X connect 2 0 5 0;
#X connect 3 0 6 0;
#X connect 4 0 0 0;
#X restore 19 60 pd notes-object;
#N canvas 0 22 450 300 notes-text 0;
#X obj 58 59 text define -k to-notes;
#A set;
#X obj 58 83 s to-notes-ptr;
#X obj 58 36 r get-notes;
#X connect 0 0 1 0;
#X connect 2 0 0 0;
#X restore 19 14 pd notes-text;
#N canvas 0 22 582 438 notes-parser 0;
#X msg 20 81 line 0 \, auto;
#X obj 20 105 text sequence -s text t;
#X obj 20 134 list split 1;
#X obj 60 158 list split 1;
#X obj 20 38 t b p b, f 30;
#X obj 60 182 t f f;
#X obj 92 261 * 3;
#X obj 92 213 <= 60;
#X obj 259 237 change;
#X obj 92 237 change;
#X msg 355 201 \; notes-object write ./test1;
#X msg 20 378 \; input append -dur \$1;
#X msg 60 332 \; input append -pit \$1;
#X msg 92 284 \; input append -clf \$1;
#X msg 259 283 \; input append -dyn \$1;
#X msg 227 68 set -1 \; notes-object clear \, refdur 32;
#X obj 227 106 t a a;
#X obj 20 13 r to-notes-ptr;
#X connect 0 0 1 0;
#X connect 1 0 2 0;
#X connect 1 1 10 0;
#X connect 2 0 11 0;
#X connect 2 1 3 0;
#X connect 3 0 5 0;
#X connect 3 1 8 0;
#X connect 4 0 0 0;
#X connect 4 1 1 1;
#X connect 4 2 15 0;
#X connect 5 0 12 0;
#X connect 5 1 7 0;
#X connect 6 0 13 0;
#X connect 7 0 9 0;
#X connect 8 0 14 0;
#X connect 9 0 6 0;
#X connect 15 0 16 0;
#X connect 16 0 9 0;
#X connect 16 1 8 0;
#X connect 17 0 4 0;
#X restore 19 37 pd notes-parser;
#X msg 301 14 \; get-notes bang;
#X msg 176 15 \; get-notes click;
#N canvas 555 96 603 542 fill-notes 1;
#X msg 30 19 bang;
#X obj 135 200 until;
#X obj 135 224 random 3;
#X obj 135 248 sel;
#X msg 135 272 -1;
#X obj 46 93 fd_norep 10;
#X obj 46 122 fd_listout;
#X obj 30 43 random 15;
#X obj 30 67 t b f;
#X obj 46 146 print;
#X connect 0 0 7 0;
#X connect 1 0 2 0;
#X connect 2 0 3 0;
#X connect 3 0 4 0;
#X connect 5 0 6 0;
#X connect 6 0 9 0;
#X connect 7 0 8 0;
#X connect 8 0 5 0;
#X connect 8 1 5 1;
#X restore 16 89 pd fill-notes;
